<svg xmlns="http://www.w3.org/2000/svg" xmlns:xlink="http://www.w3.org/1999/xlink" width="28.35" height="33" fill="none"><defs><linearGradient xlink:href="#a" id="c" x1="28.317" x2="-1.733" y1="8.192" y2="20.209" gradientUnits="userSpaceOnUse"/><linearGradient xlink:href="#a" id="d" x1="28.317" x2="-1.733" y1="8.192" y2="20.209" gradientUnits="userSpaceOnUse"/><linearGradient xlink:href="#a" id="e" x1="28.317" x2="-1.733" y1="8.192" y2="20.209" gradientUnits="userSpaceOnUse"/><linearGradient xlink:href="#a" id="f" x1="28.317" x2="-1.733" y1="8.192" y2="20.209" gradientUnits="userSpaceOnUse"/><linearGradient xlink:href="#a" id="b" x1="28.317" x2="-1.733" y1="8.192" y2="20.209" gradientUnits="userSpaceOnUse"/></defs><linearGradient id="a" x1="28.317" x2="-1.733" y1="8.192" y2="20.209" gradientUnits="userSpaceOnUse"><stop offset="0" stop-color="#c200fb"/><stop offset=".49" stop-color="#3772ff"/><stop offset=".49" stop-color="#3773fe"/><stop offset="1" stop-color="#5ac4be"/></linearGradient><g fill="url(#b)"><path fill="url(#c)" d="M26.863 12.281v11.41L14.17 31.017 1.472 23.691V9.032l12.699-7.333 9.754 5.634 1.472-.85L14.171 0 0 8.183V24.54l14.17 8.182 14.172-8.182V11.43z"/><path fill="url(#d)" d="M10.618 23.698H8.494v-7.12h7.079a2.548 2.548 0 0 0 2.332-3.507 2.428 2.428 0 0 0-.556-.811 2.456 2.456 0 0 0-1.776-.744H8.494V9.351h7.086a4.715 4.715 0 0 1 4.685 4.685 4.551 4.551 0 0 1-.828 2.655 4.614 4.614 0 0 1-2.038 1.67c-.82.26-1.675.39-2.534.383h-4.247z"/><path fill="url(#e)" d="M20.216 23.521h-2.478l-1.91-3.333a8.073 8.073 0 0 0 2.215-.453z"/><path fill="url(#f)" d="m25.383 9.91 1.465.814 1.466-.814V8.19l-1.466-.85-1.465.85z"/></g></svg>